<svg width="1280" height="720" xmlns="http://www.w3.org/2000/svg" xmlns:xlink="http://www.w3.org/1999/xlink" overflow="hidden"><defs><filter id="fx0" x="-10%" y="-10%" width="120%" height="120%" filterUnits="userSpaceOnUse" primitiveUnits="userSpaceOnUse"><feComponentTransfer color-interpolation-filters="sRGB"><feFuncR type="discrete" tableValues="0 0"/><feFuncG type="discrete" tableValues="0 0"/><feFuncB type="discrete" tableValues="0 0"/><feFuncA type="linear" slope="0.431373" intercept="0"/></feComponentTransfer><feGaussianBlur stdDeviation="2.99951 2.99951"/></filter><clipPath id="clip1"><rect x="0" y="0" width="1280" height="720"/></clipPath><clipPath id="clip2"><rect x="23" y="138" width="1255" height="390"/></clipPath></defs><g clip-path="url(#clip1)"><rect x="0" y="0" width="1280" height="720" fill="#FFFFFF"/><g clip-path="url(#clip2)" filter="url(#fx0)" transform="translate(-9 44)"><g><path d="M357.455 19.6475C349.09 44.2613 317.073 58.4992 261.404 62.3613L261.04 62.0057 261.345 62.0057C245.303 62.0057 227.955 58.698 209.302 52.0826 200.103 48.8178 182.219 41.1094 155.649 28.9575 146.993 24.9442 137.849 22.9375 128.217 22.9375 111.604 22.9375 95.9201 23.2063 81.166 23.7439 66.412 24.2815 57.6732 25.745 54.9498 28.1343 40.2797 30.5236 35.2182 25.0282 39.7654 11.6479 43.1161 1.79013 50.7012-5.14544 62.5209-9.15876 69.9782-11.8169 87.207-15.2165 114.207-19.3577 141.208-23.4989 166.079-29.3308 188.823-36.8534 252.358-57.8197 293.464-95.7811 312.14-150.737 320.738-176.034 320.785-199.9 312.283-222.336 300.562-240.17 280.535-249.087 252.203-249.087 216.591-249.087 185.698-239.218 159.522-219.481 133.347-199.744 114.03-171.546 101.572-134.887 92.6143-108.529 94.0945-89.5091 106.013-77.8257 108.305-76.4033 111.737-75.1787 116.309-74.1521 120.113-73.4614 124.842-72.6186 130.496-71.6237 143.268-68.9133 147.745-61.9432 143.928-50.7134 138.893-35.8996 126.281-28.4927 106.092-28.4927 95.3657-28.4927 85.2512-31.1699 75.7481-36.5244 66.2449-41.879 59.0275-49.0633 54.0958-58.0773 45.0201-75.5735 45.7163-99.7234 56.1846-130.527 73.005-180.02 100.48-219.231 138.609-248.162 176.738-277.092 219.414-291.557 266.634-291.557 300.947-291.557 326.453-282.629 343.152-264.772 368.819-237.224 373.158-198.457 356.17-148.469 331.673-76.3865 278.287-27.5659 196.01-2.00759 228.783 12.5915 255.094 19.8911 274.942 19.8911 291.848 19.8911 305.523 17.6175 315.967 13.0703L316.88 10.3796C329.206-0.482531 338.578-5.91357 344.998-5.91357 347.59-5.91357 349.929-5.15011 352.014-3.62318 359.123 1.64639 360.936 9.40329 357.455 19.6475ZM644.723-119.884C631.879-82.0882 615.026-52.6435 594.164-31.5503 573.614-10.7557 551.361-0.358398 527.407-0.358398 498.063-0.358398 482.837-14.5749 481.73-43.0078 461.908-21.1455 442.769-10.2144 424.311-10.2144 400.134-10.2144 384.406-23.1988 377.126-49.1678 369.579-76.1111 373.278-111.57 388.222-155.545 409.254-217.428 429.745-248.37 449.696-248.37 455.359-248.37 459.634-246.238 462.521-241.974 465.408-237.709 464.66-232.733 460.277-227.045 457.301-225.492 453.165-217.1 447.869-201.868 442.572-186.636 436.919-170.18 430.911-152.499 421.083-123.58 417.728-100.109 420.847-82.0844 423.614-66.188 430.448-58.2397 441.349-58.2397 448.767-58.2397 456.87-62.7412 465.658-71.7441 474.447-80.747 481.405-92.7916 486.532-107.878 489.325-116.099 492.412-127.558 495.795-142.255 499.177-156.952 501.947-167.475 504.105-173.823 510.398-192.34 521.369-201.599 537.019-201.599 553.027-201.599 557.682-191.743 550.982-172.031 550.544-170.74 549.14-166.872 546.771-160.43 544.403-153.987 542.379-148.297 540.701-143.359 529.221-109.578 522.754-88.3209 521.3-79.5869 517.12-54.6035 523.109-42.1118 539.265-42.1118 549.828-42.1118 560.364-47.856 570.874-59.3443 581.383-70.8327 590.347-87.4884 597.765-109.312 606.293-134.412 612.204-159.715 615.496-185.221 618.787-210.726 620.675-224.189 621.159-225.612 625.219-237.558 633.461-243.532 645.885-243.532 659.047-243.532 665.426-232.477 665.023-210.369 664.598-188.617 657.831-158.455 644.723-119.884ZM788.061-275.25C781.485-255.896 768.64-246.22 749.525-246.22 741.818-246.22 736.231-248.897 732.764-254.251 729.298-259.606 728.851-266.068 731.423-273.637 734.203-281.813 739.416-288.755 747.064-294.464 754.712-300.172 762.683-303.026 770.979-303.026 778.85-303.026 784.357-300.434 787.5-295.249 790.642-290.064 790.83-283.398 788.061-275.25ZM757.152-206.975C732.634-134.827 711.895-81.418 694.937-46.7486 688.043-32.5769 682.926-24.1396 679.584-21.4367 672.002-11.3269 663.832-6.27197 655.076-6.27197 649.325-6.27197 645.074-8.19043 642.325-12.0273 639.575-15.8643 640.355-20.5164 644.663-25.9839 647.72-27.7759 649.17-32.5303 649.011-40.247 654.234-49.4739 659.804-60.6328 665.722-73.7237 673.565-91.3468 681.264-111.273 688.819-133.503 692.123-143.225 695.505-153.531 698.967-164.421 702.429-175.311 704.329-181.253 704.667-182.246 710.319-198.878 715.488-210.048 720.176-215.756 727.017-225.194 735.191-229.913 744.698-229.913 758.198-229.913 762.349-222.267 757.152-206.975ZM997.307-221.709C994.314-212.909 982.868-204.099 962.967-195.277 936.554-184.489 911.156-174.438 886.774-165.124 905.381-138.552 918.711-114.049 926.764-91.6156 934.161-70.8696 936.203-55.6227 932.89-45.875 930.833-39.8196 927.008-34.5724 921.414-30.1335 915.821-25.6946 910.234-23.4751 904.655-23.4751 898.547-23.4751 894.427-27.1785 892.296-34.5854 888.551-47.7081 882.631-66.9048 874.535-92.1756 868.273-108.916 858.491-127.339 845.189-147.445 840.268-151.21 837.711-153.226 837.517-153.493 835.042-158.753 834.97-164.813 837.301-171.673 839.653-178.594 846.07-184.386 856.551-189.047 867.055-193.054 879.569-197.896 894.093-203.57 904.935-208.144 923.685-216.816 950.345-229.588 967.182-237.689 978.116-241.74 983.147-241.74 997.125-241.74 1001.84-235.063 997.307-221.709ZM880.48-257.868C877.301-255.717 875.21-250.772 874.208-243.033 869.349-235.725 864.142-226.547 858.587-215.498 850.639-199.731 843.425-182.315 836.946-163.25 833.106-151.952 828.197-135.308 822.218-113.321 816.239-91.3337 811.416-74.9445 807.75-64.1533 802.206-47.8425 796.653-36.0676 791.09-28.8287 784.421-20.1226 776.249-15.7695 766.576-15.7695 758.369-15.7695 754.028-18.9466 753.554-25.3007 753.305-28.5281 754.578-34.2513 757.373-42.4702 759.402-48.4435 761.999-55.9102 765.164-64.8701 768.329-73.8301 770.419-79.8034 771.434-82.79 775.565-94.9457 780.524-111.121 786.312-131.315 792.1-151.51 796.378-165.679 799.146-173.823 810.066-205.958 821.574-231.221 833.67-249.613 846.251-268.496 858.125-277.938 869.291-277.938 874.945-277.938 879.286-275.918 882.314-271.877 885.341-267.837 884.73-263.167 880.48-257.868ZM1002.26-5.73438C999.367 2.77572 996.873 8.53063 994.775 11.5303 989.51 18.7767 982.562 22.3999 973.929 22.3999 960.483 22.3999 955.951 13.201 960.332-5.19678 967.769-38.3449 980.714-82.0695 999.168-136.371 1019.76-196.962 1033.24-234.187 1039.61-248.045 1047.66-265.346 1057.8-273.996 1070.02-273.996 1084.43-273.996 1088.77-265.573 1083.05-248.729 1082.03-245.738 1076.63-231.79 1066.86-206.885 1057.08-181.981 1048.51-158.715 1041.16-137.087 1034.76-118.24 1027.55-94.2098 1019.53-64.9975 1011.52-35.7852 1005.76-16.0309 1002.26-5.73438ZM1261.72-231.525C1256.5-216.165 1241.34-189.738 1216.26-152.247 1193.27-117.863 1158.36-74.5357 1111.54-22.2655 1101.44-10.1621 1091.53 1.64919 1081.79 13.1683 1072.08 23.9819 1062.95 29.3887 1054.42 29.3887 1049.15 29.3887 1045.22 27.2523 1042.61 22.9795 1040.01 18.7067 1039.61 13.9141 1041.41 8.60156 1044.28 0.1568 1055.39-13.9999 1074.74-33.8687 1110.9-74.6607 1129.27-95.0969 1129.83-95.1772 1117.1-125.557 1108.54-154.457 1104.15-181.876 1100.55-203.944 1100.16-219.12 1102.98-227.404 1107.44-240.545 1116.01-247.116 1128.69-247.116 1136.59-247.116 1142.02-240.845 1144.97-228.303 1146.04-213.3 1147.35-199.647 1148.91-187.342 1152.15-167.794 1156.05-149.183 1160.61-131.51 1174.91-152.609 1188.84-175.435 1202.4-199.989 1216.76-225.717 1224.1-238.861 1224.42-239.421 1232.46-251.002 1240.99-256.792 1250.01-256.792 1263.54-256.792 1267.44-248.37 1261.72-231.525Z" fill="#4472C4" transform="translate(-0.597663 453)"/></g></g><text fill="#4472C4" font-family="Kristen ITC,Kristen ITC_MSFontService,sans-serif" font-style="oblique" font-weight="700" font-stretch="semi-expanded" font-size="367" transform="translate(-15.9606 491)">Qwikly</text></g></svg>